<svg width="512" height="512" viewBox="0 0 512 512" fill="none" xmlns="http://www.w3.org/2000/svg">
<g clip-path="url(#clip0_160_837)">
<path d="M256.025 483.334L357.454 457.72C415.349 409.646 452.225 337.134 452.225 256.001C452.225 130.857 364.514 26.1999 247.213 0.148926C109.897 4.77993 0 117.556 0 256C0 327.112 29 391.446 75.812 437.836L256.025 483.334Z" fill="#CBE2FF"/>
<path d="M446.914 256C446.914 339.915 406.533 414.391 344.149 461.079L436.18 437.838C482.995 391.448 512 327.114 512 256C512 114.615 397.385 0 256 0C244.976 0 234.114 0.698 223.457 2.05C349.476 18.038 446.914 125.64 446.914 256Z" fill="#BED8FB"/>
<path d="M319.622 96.9518C319.622 83.8768 309.023 73.2778 295.948 73.2778H214.366C184.275 73.2778 159.881 97.6718 159.881 127.763V188.256H352.09V128.621C352.09 115.546 341.491 104.947 328.416 104.947H327.618C326.568 104.947 325.528 104.74 324.558 104.339C323.588 103.937 322.706 103.348 321.964 102.606C321.221 101.863 320.632 100.982 320.231 100.012C319.829 99.0416 319.622 98.0018 319.622 96.9518Z" fill="#365E7D"/>
<path d="M328.415 104.947H327.617C325.496 104.947 323.462 104.104 321.963 102.605C320.463 101.105 319.621 99.0715 319.621 96.9509C319.621 83.8759 309.022 73.2769 295.947 73.2769H287.002V188.255H352.088V128.62C352.089 115.547 341.489 104.947 328.415 104.947Z" fill="#2B4D66"/>
<path d="M425.044 372.355C418.644 366.032 410.833 361.32 402.254 358.61L332.363 336.482L256.015 333.799L179.635 336.482L109.744 358.61C86.1003 366.096 70.0312 388.038 70.0312 412.839V431.933C114.82 479.261 177.482 509.501 247.214 511.853C325.342 494.5 390.343 442.277 425.044 372.355Z" fill="#4A80AA"/>
<path d="M441.969 431.932V412.838C441.969 395.302 433.929 379.203 420.864 368.625C383.753 444.251 310.442 498.893 223.518 509.942C234.14 511.291 244.836 511.978 255.544 511.999C265.844 511.985 276.135 511.39 286.368 510.217C347.399 503.005 401.853 474.323 441.969 431.932Z" fill="#407093"/>
<path d="M261.796 508.168C277.285 477.417 317.618 390.101 306.117 335.559L256.016 316.06L205.868 335.56C194.012 391.785 237.238 482.837 251.549 510.85C254.983 510.025 258.399 509.131 261.796 508.168Z" fill="#E4F6FF"/>
<path d="M288.197 483.789L267.883 403.872H244.116L223.852 483.571L248.91 511.468C255.241 510.018 261.515 508.331 267.72 506.411L288.197 483.789Z" fill="#E28086"/>
<path d="M249.302 511.905C251.377 511.959 253.456 511.996 255.543 512C257.958 511.996 260.365 511.954 262.765 511.887L275.672 497.628C265.434 501.22 254.976 504.152 244.363 506.407L249.302 511.905Z" fill="#DD636E"/>
<path d="M298.773 328.183V283.117H213.193V328.183C213.193 351.815 255.983 377.629 255.983 377.629C255.983 377.629 298.773 351.815 298.773 328.183Z" fill="#FFDDCE"/>
<path d="M352.09 180.318H335.731C326.633 180.318 319.258 172.943 319.258 163.845V154.83C319.258 142.979 307.663 134.6 296.411 138.319C270.168 146.993 241.832 146.995 215.588 138.325L215.557 138.315C204.305 134.598 192.712 142.977 192.712 154.827V163.846C192.712 172.944 185.337 180.319 176.239 180.319H159.881V207.257C159.881 214.14 165.461 219.721 172.345 219.721C174.517 219.721 176.284 221.422 176.421 223.59C179.049 265.258 213.656 298.244 255.986 298.244C298.316 298.244 332.923 265.258 335.551 223.59C335.688 221.423 337.455 219.721 339.627 219.721C346.51 219.721 352.091 214.141 352.091 207.257V180.318H352.09Z" fill="#FFDDCE"/>
<path d="M335.729 180.318C326.631 180.318 319.256 172.943 319.256 163.845V154.83C319.256 142.979 307.661 134.6 296.409 138.319C293.309 139.34 290.171 140.243 287.002 141.026V229.998C286.564 258.946 270.702 284.14 247.277 297.756C250.168 298.075 253.075 298.237 255.983 298.242C298.313 298.242 332.92 265.256 335.548 223.588C335.685 221.421 337.452 219.719 339.624 219.719C346.507 219.719 352.088 214.139 352.088 207.255V180.317L335.729 180.318Z" fill="#FFCBBE"/>
<path d="M213.195 316.06L179.637 343.327L214.829 386.84C216.895 388.852 219.635 390.026 222.517 390.136C225.399 390.246 228.22 389.283 230.434 387.434L256.899 365.327L213.195 316.06ZM298.791 316.06L256.899 365.327L281.773 386.595C283.972 388.475 286.793 389.47 289.686 389.387C292.578 389.303 295.337 388.146 297.424 386.142L332.364 343.327L298.791 316.06Z" fill="#F4FBFF"/>
<path d="M213.194 316.06L163.938 340.259C163.048 340.696 162.253 341.307 161.602 342.055C160.95 342.803 160.454 343.673 160.143 344.616C159.832 345.558 159.712 346.552 159.79 347.541C159.868 348.53 160.142 349.494 160.597 350.376L170.247 369.086C171.466 371.448 171.902 374.137 171.492 376.763C171.081 379.39 169.846 381.817 167.965 383.696C165.964 385.693 163.962 387.691 161.961 389.689C158.623 393.021 157.424 397.944 158.894 402.426C170.545 437.943 226.619 492.254 247.84 511.904C249.267 511.942 250.697 511.968 252.13 511.984C236.741 482.051 182.208 368.329 213.194 316.06ZM344.019 383.695C342.138 381.817 340.903 379.389 340.493 376.762C340.082 374.136 340.518 371.447 341.737 369.085L351.387 350.375C351.842 349.493 352.116 348.529 352.194 347.54C352.272 346.551 352.152 345.557 351.841 344.615C351.53 343.672 351.034 342.802 350.382 342.054C349.731 341.306 348.937 340.695 348.046 340.258L298.79 316.06C329.768 368.315 275.273 481.989 259.867 511.96C261.315 511.935 262.76 511.899 264.202 511.851C285.467 492.156 341.45 437.911 353.09 402.427C354.56 397.945 353.361 393.022 350.023 389.69L344.019 383.695Z" fill="#365E7D"/>
<path d="M256.898 365.327L230.838 387.091L244.116 403.872H267.883L281.162 386.101L256.898 365.327Z" fill="#DD636E"/>
</g>
<defs>
<clipPath id="clip0_160_837">
<rect width="512" height="512" fill="white"/>
</clipPath>
</defs>
</svg>
